<?xml version="1.0" standalone="no"?>
<!DOCTYPE svg PUBLIC "-//W3C//DTD SVG 20010904//EN"
 "http://www.w3.org/TR/2001/REC-SVG-20010904/DTD/svg10.dtd">
<svg version="1.0" xmlns="http://www.w3.org/2000/svg"
 width="225.000000pt" height="225.000000pt" viewBox="0 0 225.000000 225.000000"
 preserveAspectRatio="xMidYMid meet">
<metadata>
Created by potrace 1.14, written by Peter Selinger 2001-2017
</metadata>
<g transform="translate(0.000000,225.000000) scale(0.100000,-0.100000)"
fill="#000000" stroke="none">
<path d="M1105 2030 c-11 -4 -57 -46 -102 -93 -61 -62 -83 -91 -83 -111 0 -30
32 -66 59 -66 10 0 30 9 44 20 14 11 28 20 31 20 3 0 6 -58 6 -130 l0 -130
-53 0 c-40 0 -58 -5 -70 -18 -23 -25 -21 -68 3 -92 18 -18 33 -20 185 -20 152
0 167 2 185 20 11 11 20 33 20 48 0 43 -28 62 -88 62 l-52 0 0 250 0 250 -32
-1 c-18 0 -42 -4 -53 -9z"/>
<path d="M441 394 c-19 -24 -21 -40 -21 -186 0 -155 1 -159 25 -183 l24 -25
656 0 656 0 24 25 c24 24 25 28 25 183 0 146 -2 162 -21 186 l-20 26 -664 0
-664 0 -20 -26z m1039 -184 l0 -70 -355 0 -355 0 0 70 0 70 355 0 355 0 0 -70z"/>
</g>
</svg>
